<?xml version="1.0" encoding="utf-8"?>
<!-- Generator: Adobe Illustrator 27.1.0, SVG Export Plug-In . SVG Version: 6.00 Build 0)  -->
<svg version="1.1" id="Layer_1" xmlns="http://www.w3.org/2000/svg" xmlns:xlink="http://www.w3.org/1999/xlink" x="0px" y="0px"
	 viewBox="0 0 333.8 125.6" style="enable-background:new 0 0 333.8 125.6;" xml:space="preserve">
<style type="text/css">
	.st0{fill:#FFFFFF;}
	.st1{opacity:0.7;fill:#FFFFFF;enable-background:new    ;}
	.st2{opacity:0.3;fill:#FFFFFF;enable-background:new    ;}
</style>
<polygon class="st0" points="0,17 5.3,0.3 57.6,0.3 52.8,17 "/>
<polygon class="st0" points="30.4,26.1 14.1,26.1 4.8,55.3 21.3,55.3 "/>
<polygon class="st0" points="57.6,17 74.7,17 80,0.3 62.7,0.3 "/>
<polygon class="st0" points="54.7,26.1 71.8,26.1 63.2,55.3 46,55.3 "/>
<path class="st0" d="M80.4,17l5.1-16.7h56.1c0,0,12,0.2,9.5,8.4l-1.9,8.3h-17.5c0,0,2.3-4-3.2-4h-30l-1.5,4L80.4,17L80.4,17z"/>
<path class="st0" d="M145.8,26.1H77.9l-9.3,29.2h16.9l5.6-17.9l37,0.7C128.1,38.1,146,38.8,145.8,26.1"/>
<polygon class="st0" points="162.6,16.9 193,16.9 193,0 175.5,0 "/>
<polygon class="st0" points="155.9,25.5 193,26 193,55.7 178.5,55.6 178.5,38.5 162.8,38.5 151,55.6 133.5,55.7 "/>
<polygon class="st0" points="218.8,1 237,1 239.5,10.5 247.9,1 265.7,1 249.9,17.7 224.1,17.7 "/>
<polygon class="st0" points="221.4,26.7 247.1,26.7 256,56 237.2,56 232.6,38.6 229.8,38.6 215,56 196,56 "/>
<polygon class="st0" points="272.4,1 251.8,23 261.2,56 279.8,56 270.1,22.3 288.7,1 "/>
<polygon class="st1" points="294.8,1 274.1,23 283.6,56 302.2,56 292.5,22.3 311,1 "/>
<polygon class="st2" points="317.6,1 296.9,23 306.4,56 325,56 315.3,22.3 333.8,1 "/>
<path class="st0" d="M30,111.6c-1.7,0.8-5.1,1.7-9.4,1.7c-10,0-17.6-6.3-17.6-18s7.6-18.7,18.6-18.7c4.4,0,7.2,0.9,8.4,1.6L28.9,82
	c-1.7-0.8-4.2-1.5-7.2-1.5c-8.3,0-13.9,5.3-13.9,14.7c0,8.7,5,14.3,13.7,14.3c2.8,0,5.6-0.6,7.5-1.5L30,111.6L30,111.6z"/>
<path class="st0" d="M58.1,99.8c0,9.4-6.5,13.6-12.7,13.6c-6.9,0-12.2-5.1-12.2-13.1c0-8.6,5.6-13.6,12.7-13.6S58.1,92,58.1,99.8
	 M37.9,100c0,5.6,3.2,9.8,7.8,9.8s7.8-4.2,7.8-9.9c0-4.3-2.2-9.8-7.7-9.8S37.9,95.2,37.9,100"/>
<path class="st0" d="M85.3,105.8c0,2.6,0.1,5,0.2,7h-4.1l-0.3-4.2h-0.1c-1.2,2.1-3.9,4.8-8.4,4.8c-4,0-8.8-2.2-8.8-11.2V87.2h4.6
	v14.1c0,4.8,1.5,8.1,5.7,8.1c3.1,0,5.3-2.2,6.1-4.2c0.3-0.7,0.4-1.5,0.4-2.4V87.2h4.6L85.3,105.8L85.3,105.8z"/>
<path class="st0" d="M93.1,95.2c0-3-0.1-5.6-0.2-8h4.1l0.2,5h0.2c1.2-3.4,4-5.6,7.1-5.6c0.5,0,0.9,0.1,1.3,0.2v4.4
	c-0.5-0.1-0.9-0.2-1.6-0.2c-3.3,0-5.6,2.5-6.2,6c-0.1,0.6-0.2,1.4-0.2,2.2v13.6h-4.6V95.2L93.1,95.2z"/>
<path class="st0" d="M115.7,80.1c0.1,1.6-1.1,2.8-2.9,2.8c-1.6,0-2.8-1.3-2.8-2.8s1.2-2.9,2.9-2.9S115.7,78.4,115.7,80.1
	 M110.5,87.2h4.6v25.5h-4.6V87.2z"/>
<path class="st0" d="M125.4,100.8c0.1,6.3,4.1,8.9,8.8,8.9c3.3,0,5.3-0.6,7.1-1.3l0.8,3.3c-1.6,0.7-4.4,1.6-8.5,1.6
	c-7.9,0-12.6-5.2-12.6-12.9s4.5-13.8,12-13.8c8.3,0,10.6,7.3,10.6,12c0,0.9-0.1,1.7-0.2,2.2L125.4,100.8L125.4,100.8z M139.1,97.5
	c0.1-2.9-1.2-7.6-6.4-7.6c-4.7,0-6.8,4.3-7.1,7.6H139.1z"/>
<path class="st0" d="M149.3,95.2c0-3-0.1-5.6-0.2-8h4.1l0.2,5h0.2c1.2-3.4,4-5.6,7.1-5.6c0.5,0,0.9,0.1,1.3,0.2v4.4
	c-0.5-0.1-0.9-0.2-1.6-0.2c-3.3,0-5.6,2.5-6.2,6c-0.1,0.6-0.2,1.4-0.2,2.2v13.6h-4.6L149.3,95.2L149.3,95.2z"/>
<path class="st0" d="M177.3,107.2c2.1,1.3,5.1,2.3,8.2,2.3c4.7,0,7.4-2.5,7.4-6.1c0-3.3-1.9-5.2-6.7-7.1c-5.8-2.1-9.4-5.1-9.4-10.1
	c0-5.5,4.6-9.7,11.5-9.7c3.6,0,6.3,0.8,7.9,1.7l-1.3,3.8c-1.2-0.6-3.5-1.7-6.8-1.7c-4.9,0-6.7,2.9-6.7,5.3c0,3.3,2.2,5,7.1,6.9
	c6,2.3,9.1,5.2,9.1,10.4c0,5.5-4.1,10.2-12.4,10.2c-3.4,0-7.2-1-9.1-2.3L177.3,107.2L177.3,107.2z"/>
<path class="st0" d="M206.6,100.8c0.1,6.3,4.1,8.9,8.8,8.9c3.3,0,5.3-0.6,7.1-1.3l0.8,3.3c-1.6,0.7-4.4,1.6-8.5,1.6
	c-7.9,0-12.6-5.2-12.6-12.9s4.5-13.8,12-13.8c8.3,0,10.6,7.3,10.6,12c0,0.9-0.1,1.7-0.2,2.2L206.6,100.8L206.6,100.8z M220.3,97.5
	c0.1-2.9-1.2-7.6-6.4-7.6c-4.7,0-6.8,4.3-7.1,7.6H220.3z"/>
<path class="st0" d="M230.5,95.2c0-3-0.1-5.6-0.2-8h4.1l0.2,5h0.2c1.2-3.4,4-5.6,7.1-5.6c0.5,0,0.9,0.1,1.3,0.2v4.4
	c-0.5-0.1-0.9-0.2-1.6-0.2c-3.3,0-5.6,2.5-6.2,6c-0.1,0.6-0.2,1.4-0.2,2.2v13.6h-4.6L230.5,95.2L230.5,95.2z"/>
<path class="st0" d="M250.9,87.2l5,14.3c0.8,2.3,1.5,4.4,2.1,6.5h0.2c0.6-2.1,1.3-4.2,2.2-6.5l5-14.3h4.9l-10,25.5h-4.4l-9.7-25.5
	H250.9L250.9,87.2z"/>
<path class="st0" d="M279.6,80.1c0,1.6-1.1,2.8-3,2.8c-1.6,0-2.8-1.3-2.8-2.8s1.2-2.9,2.9-2.9S279.6,78.4,279.6,80.1 M274.4,87.2
	h4.6v25.5h-4.6V87.2z"/>
<path class="st0" d="M305,111.8c-1.2,0.6-3.9,1.5-7.3,1.5c-7.7,0-12.7-5.2-12.7-13s5.4-13.6,13.7-13.6c2.7,0,5.2,0.7,6.4,1.3
	l-1.1,3.6c-1.1-0.6-2.9-1.2-5.4-1.2c-5.9,0-9,4.3-9,9.7c0,5.9,3.8,9.6,8.9,9.6c2.6,0,4.4-0.7,5.7-1.3L305,111.8L305,111.8z"/>
<path class="st0" d="M312.7,100.8c0.1,6.3,4.1,8.9,8.8,8.9c3.3,0,5.3-0.6,7.1-1.3l0.8,3.3c-1.6,0.7-4.4,1.6-8.5,1.6
	c-7.9,0-12.6-5.2-12.6-12.9s4.5-13.8,12-13.8c8.3,0,10.5,7.3,10.5,12c0,0.9-0.1,1.7-0.2,2.2L312.7,100.8L312.7,100.8z M326.3,97.5
	c0-2.9-1.2-7.6-6.4-7.6c-4.7,0-6.8,4.3-7.1,7.6H326.3z"/>
</svg>
